<?xml version="1.0" encoding="utf-8" standalone="no"?>
<!DOCTYPE svg PUBLIC "-//W3C//DTD SVG 1.1//EN"
  "http://www.w3.org/Graphics/SVG/1.1/DTD/svg11.dtd">
<!-- Created with matplotlib (http://matplotlib.org/) -->
<svg height="633pt" version="1.1" viewBox="0 0 921 633" width="921pt" xmlns="http://www.w3.org/2000/svg" xmlns:xlink="http://www.w3.org/1999/xlink">
 <defs>
  <style type="text/css">
*{stroke-linecap:butt;stroke-linejoin:round;}
  </style>
 </defs>
 <g id="figure_1">
  <g id="patch_1">
   <path d="M 0 633.6 
L 921.6 633.6 
L 921.6 0 
L 0 0 
z
" style="fill:#ffffff;"/>
  </g>
  <g id="axes_1">
   <g id="patch_2">
    <path d="M 115.2 554.4 
L 829.44 554.4 
L 829.44 76.032 
L 115.2 76.032 
z
" style="fill:#eaeaf2;"/>
   </g>
   <g id="matplotlib.axis_1">
    <g id="xtick_1">
     <g id="line2d_1">
      <path clip-path="url(#p6efea3b928)" d="M 147.665455 554.4 
L 147.665455 76.032 
" style="fill:none;stroke:#ffffff;stroke-linecap:round;stroke-width:1.6;"/>
     </g>
     <g id="line2d_2"/>
     <g id="text_1">
      <!-- 0 -->
      <defs>
       <path d="M 4.15625 35.296875 
Q 4.15625 48 6.765625 55.734375 
Q 9.375 63.484375 14.515625 67.671875 
Q 19.671875 71.875 27.484375 71.875 
Q 33.25 71.875 37.59375 69.546875 
Q 41.9375 67.234375 44.765625 62.859375 
Q 47.609375 58.5 49.21875 52.21875 
Q 50.828125 45.953125 50.828125 35.296875 
Q 50.828125 22.703125 48.234375 14.96875 
Q 45.65625 7.234375 40.5 3 
Q 35.359375 -1.21875 27.484375 -1.21875 
Q 17.140625 -1.21875 11.234375 6.203125 
Q 4.15625 15.140625 4.15625 35.296875 
M 13.1875 35.296875 
Q 13.1875 17.671875 17.3125 11.828125 
Q 21.4375 6 27.484375 6 
Q 33.546875 6 37.671875 11.859375 
Q 41.796875 17.71875 41.796875 35.296875 
Q 41.796875 52.984375 37.671875 58.78125 
Q 33.546875 64.59375 27.390625 64.59375 
Q 21.34375 64.59375 17.71875 59.46875 
Q 13.1875 52.9375 13.1875 35.296875 
" id="ArialMT-30"/>
      </defs>
      <g style="fill:#262626;" transform="translate(143.216705 577.0525)scale(0.16 -0.16)">
       <use xlink:href="#ArialMT-30"/>
      </g>
     </g>
    </g>
    <g id="xtick_2">
     <g id="line2d_3">
      <path clip-path="url(#p6efea3b928)" d="M 292.438942 554.4 
L 292.438942 76.032 
" style="fill:none;stroke:#ffffff;stroke-linecap:round;stroke-width:1.6;"/>
     </g>
     <g id="line2d_4"/>
     <g id="text_2">
      <!-- 200 -->
      <defs>
       <path d="M 50.34375 8.453125 
L 50.34375 0 
L 3.03125 0 
Q 2.9375 3.171875 4.046875 6.109375 
Q 5.859375 10.9375 9.828125 15.625 
Q 13.8125 20.3125 21.34375 26.46875 
Q 33.015625 36.03125 37.109375 41.625 
Q 41.21875 47.21875 41.21875 52.203125 
Q 41.21875 57.421875 37.46875 61 
Q 33.734375 64.59375 27.734375 64.59375 
Q 21.390625 64.59375 17.578125 60.78125 
Q 13.765625 56.984375 13.71875 50.25 
L 4.6875 51.171875 
Q 5.609375 61.28125 11.65625 66.578125 
Q 17.71875 71.875 27.9375 71.875 
Q 38.234375 71.875 44.234375 66.15625 
Q 50.25 60.453125 50.25 52 
Q 50.25 47.703125 48.484375 43.546875 
Q 46.734375 39.40625 42.65625 34.8125 
Q 38.578125 30.21875 29.109375 22.21875 
Q 21.1875 15.578125 18.9375 13.203125 
Q 16.703125 10.84375 15.234375 8.453125 
z
" id="ArialMT-32"/>
      </defs>
      <g style="fill:#262626;" transform="translate(279.092692 577.0525)scale(0.16 -0.16)">
       <use xlink:href="#ArialMT-32"/>
       <use x="55.615234" xlink:href="#ArialMT-30"/>
       <use x="111.230469" xlink:href="#ArialMT-30"/>
      </g>
     </g>
    </g>
    <g id="xtick_3">
     <g id="line2d_5">
      <path clip-path="url(#p6efea3b928)" d="M 437.212429 554.4 
L 437.212429 76.032 
" style="fill:none;stroke:#ffffff;stroke-linecap:round;stroke-width:1.6;"/>
     </g>
     <g id="line2d_6"/>
     <g id="text_3">
      <!-- 400 -->
      <defs>
       <path d="M 32.328125 0 
L 32.328125 17.140625 
L 1.265625 17.140625 
L 1.265625 25.203125 
L 33.9375 71.578125 
L 41.109375 71.578125 
L 41.109375 25.203125 
L 50.78125 25.203125 
L 50.78125 17.140625 
L 41.109375 17.140625 
L 41.109375 0 
z
M 32.328125 25.203125 
L 32.328125 57.46875 
L 9.90625 25.203125 
z
" id="ArialMT-34"/>
      </defs>
      <g style="fill:#262626;" transform="translate(423.866179 577.0525)scale(0.16 -0.16)">
       <use xlink:href="#ArialMT-34"/>
       <use x="55.615234" xlink:href="#ArialMT-30"/>
       <use x="111.230469" xlink:href="#ArialMT-30"/>
      </g>
     </g>
    </g>
    <g id="xtick_4">
     <g id="line2d_7">
      <path clip-path="url(#p6efea3b928)" d="M 581.985917 554.4 
L 581.985917 76.032 
" style="fill:none;stroke:#ffffff;stroke-linecap:round;stroke-width:1.6;"/>
     </g>
     <g id="line2d_8"/>
     <g id="text_4">
      <!-- 600 -->
      <defs>
       <path d="M 49.75 54.046875 
L 41.015625 53.375 
Q 39.84375 58.546875 37.703125 60.890625 
Q 34.125 64.65625 28.90625 64.65625 
Q 24.703125 64.65625 21.53125 62.3125 
Q 17.390625 59.28125 14.984375 53.46875 
Q 12.59375 47.65625 12.5 36.921875 
Q 15.671875 41.75 20.265625 44.09375 
Q 24.859375 46.4375 29.890625 46.4375 
Q 38.671875 46.4375 44.84375 39.96875 
Q 51.03125 33.5 51.03125 23.25 
Q 51.03125 16.5 48.125 10.71875 
Q 45.21875 4.9375 40.140625 1.859375 
Q 35.0625 -1.21875 28.609375 -1.21875 
Q 17.625 -1.21875 10.6875 6.859375 
Q 3.765625 14.9375 3.765625 33.5 
Q 3.765625 54.25 11.421875 63.671875 
Q 18.109375 71.875 29.4375 71.875 
Q 37.890625 71.875 43.28125 67.140625 
Q 48.6875 62.40625 49.75 54.046875 
M 13.875 23.1875 
Q 13.875 18.65625 15.796875 14.5 
Q 17.71875 10.359375 21.1875 8.171875 
Q 24.65625 6 28.46875 6 
Q 34.03125 6 38.03125 10.484375 
Q 42.046875 14.984375 42.046875 22.703125 
Q 42.046875 30.125 38.078125 34.390625 
Q 34.125 38.671875 28.125 38.671875 
Q 22.171875 38.671875 18.015625 34.390625 
Q 13.875 30.125 13.875 23.1875 
" id="ArialMT-36"/>
      </defs>
      <g style="fill:#262626;" transform="translate(568.639667 577.0525)scale(0.16 -0.16)">
       <use xlink:href="#ArialMT-36"/>
       <use x="55.615234" xlink:href="#ArialMT-30"/>
       <use x="111.230469" xlink:href="#ArialMT-30"/>
      </g>
     </g>
    </g>
    <g id="xtick_5">
     <g id="line2d_9">
      <path clip-path="url(#p6efea3b928)" d="M 726.759404 554.4 
L 726.759404 76.032 
" style="fill:none;stroke:#ffffff;stroke-linecap:round;stroke-width:1.6;"/>
     </g>
     <g id="line2d_10"/>
     <g id="text_5">
      <!-- 800 -->
      <defs>
       <path d="M 17.671875 38.8125 
Q 12.203125 40.828125 9.5625 44.53125 
Q 6.9375 48.25 6.9375 53.421875 
Q 6.9375 61.234375 12.546875 66.546875 
Q 18.171875 71.875 27.484375 71.875 
Q 36.859375 71.875 42.578125 66.421875 
Q 48.296875 60.984375 48.296875 53.171875 
Q 48.296875 48.1875 45.671875 44.5 
Q 43.0625 40.828125 37.75 38.8125 
Q 44.34375 36.671875 47.78125 31.875 
Q 51.21875 27.09375 51.21875 20.453125 
Q 51.21875 11.28125 44.71875 5.03125 
Q 38.234375 -1.21875 27.640625 -1.21875 
Q 17.046875 -1.21875 10.546875 5.046875 
Q 4.046875 11.328125 4.046875 20.703125 
Q 4.046875 27.6875 7.59375 32.390625 
Q 11.140625 37.109375 17.671875 38.8125 
M 15.921875 53.71875 
Q 15.921875 48.640625 19.1875 45.40625 
Q 22.46875 42.1875 27.6875 42.1875 
Q 32.765625 42.1875 36.015625 45.375 
Q 39.265625 48.578125 39.265625 53.21875 
Q 39.265625 58.0625 35.90625 61.359375 
Q 32.5625 64.65625 27.59375 64.65625 
Q 22.5625 64.65625 19.234375 61.421875 
Q 15.921875 58.203125 15.921875 53.71875 
M 13.09375 20.65625 
Q 13.09375 16.890625 14.875 13.375 
Q 16.65625 9.859375 20.171875 7.921875 
Q 23.6875 6 27.734375 6 
Q 34.03125 6 38.125 10.046875 
Q 42.234375 14.109375 42.234375 20.359375 
Q 42.234375 26.703125 38.015625 30.859375 
Q 33.796875 35.015625 27.4375 35.015625 
Q 21.234375 35.015625 17.15625 30.90625 
Q 13.09375 26.8125 13.09375 20.65625 
" id="ArialMT-38"/>
      </defs>
      <g style="fill:#262626;" transform="translate(713.413154 577.0525)scale(0.16 -0.16)">
       <use xlink:href="#ArialMT-38"/>
       <use x="55.615234" xlink:href="#ArialMT-30"/>
       <use x="111.230469" xlink:href="#ArialMT-30"/>
      </g>
     </g>
    </g>
    <g id="text_6">
     <!-- events -->
     <defs>
      <path d="M 42.09375 16.703125 
L 51.171875 15.578125 
Q 49.03125 7.625 43.21875 3.21875 
Q 37.40625 -1.171875 28.375 -1.171875 
Q 17 -1.171875 10.328125 5.828125 
Q 3.65625 12.84375 3.65625 25.484375 
Q 3.65625 38.578125 10.390625 45.796875 
Q 17.140625 53.03125 27.875 53.03125 
Q 38.28125 53.03125 44.875 45.953125 
Q 51.46875 38.875 51.46875 26.03125 
Q 51.46875 25.25 51.421875 23.6875 
L 12.75 23.6875 
Q 13.234375 15.140625 17.578125 10.59375 
Q 21.921875 6.0625 28.421875 6.0625 
Q 33.25 6.0625 36.671875 8.59375 
Q 40.09375 11.140625 42.09375 16.703125 
M 13.234375 30.90625 
L 42.1875 30.90625 
Q 41.609375 37.453125 38.875 40.71875 
Q 34.671875 45.796875 27.984375 45.796875 
Q 21.921875 45.796875 17.796875 41.75 
Q 13.671875 37.703125 13.234375 30.90625 
" id="ArialMT-65"/>
      <path d="M 21 0 
L 1.265625 51.859375 
L 10.546875 51.859375 
L 21.6875 20.796875 
Q 23.484375 15.765625 25 10.359375 
Q 26.171875 14.453125 28.265625 20.21875 
L 39.796875 51.859375 
L 48.828125 51.859375 
L 29.203125 0 
z
" id="ArialMT-76"/>
      <path d="M 6.59375 0 
L 6.59375 51.859375 
L 14.5 51.859375 
L 14.5 44.484375 
Q 20.21875 53.03125 31 53.03125 
Q 35.6875 53.03125 39.625 51.34375 
Q 43.5625 49.65625 45.515625 46.921875 
Q 47.46875 44.1875 48.25 40.4375 
Q 48.734375 37.984375 48.734375 31.890625 
L 48.734375 0 
L 39.9375 0 
L 39.9375 31.546875 
Q 39.9375 36.921875 38.90625 39.578125 
Q 37.890625 42.234375 35.28125 43.8125 
Q 32.671875 45.40625 29.15625 45.40625 
Q 23.53125 45.40625 19.453125 41.84375 
Q 15.375 38.28125 15.375 28.328125 
L 15.375 0 
z
" id="ArialMT-6e"/>
      <path d="M 25.78125 7.859375 
L 27.046875 0.09375 
Q 23.34375 -0.6875 20.40625 -0.6875 
Q 15.625 -0.6875 12.984375 0.828125 
Q 10.359375 2.34375 9.28125 4.8125 
Q 8.203125 7.28125 8.203125 15.1875 
L 8.203125 45.015625 
L 1.765625 45.015625 
L 1.765625 51.859375 
L 8.203125 51.859375 
L 8.203125 64.703125 
L 16.9375 69.96875 
L 16.9375 51.859375 
L 25.78125 51.859375 
L 25.78125 45.015625 
L 16.9375 45.015625 
L 16.9375 14.703125 
Q 16.9375 10.9375 17.40625 9.859375 
Q 17.875 8.796875 18.921875 8.15625 
Q 19.96875 7.515625 21.921875 7.515625 
Q 23.390625 7.515625 25.78125 7.859375 
" id="ArialMT-74"/>
      <path d="M 3.078125 15.484375 
L 11.765625 16.84375 
Q 12.5 11.625 15.84375 8.84375 
Q 19.1875 6.0625 25.203125 6.0625 
Q 31.25 6.0625 34.171875 8.515625 
Q 37.109375 10.984375 37.109375 14.3125 
Q 37.109375 17.28125 34.515625 19 
Q 32.71875 20.171875 25.53125 21.96875 
Q 15.875 24.421875 12.140625 26.203125 
Q 8.40625 27.984375 6.46875 31.125 
Q 4.546875 34.28125 4.546875 38.09375 
Q 4.546875 41.546875 6.125 44.5 
Q 7.71875 47.46875 10.453125 49.421875 
Q 12.5 50.921875 16.03125 51.96875 
Q 19.578125 53.03125 23.640625 53.03125 
Q 29.734375 53.03125 34.34375 51.265625 
Q 38.96875 49.515625 41.15625 46.5 
Q 43.359375 43.5 44.1875 38.484375 
L 35.59375 37.3125 
Q 35.015625 41.3125 32.203125 43.546875 
Q 29.390625 45.796875 24.265625 45.796875 
Q 18.21875 45.796875 15.625 43.796875 
Q 13.03125 41.796875 13.03125 39.109375 
Q 13.03125 37.40625 14.109375 36.03125 
Q 15.1875 34.625 17.484375 33.6875 
Q 18.796875 33.203125 25.25 31.453125 
Q 34.578125 28.953125 38.25 27.359375 
Q 41.9375 25.78125 44.03125 22.75 
Q 46.140625 19.734375 46.140625 15.234375 
Q 46.140625 10.84375 43.578125 6.953125 
Q 41.015625 3.078125 36.171875 0.953125 
Q 31.34375 -1.171875 25.25 -1.171875 
Q 15.140625 -1.171875 9.84375 3.03125 
Q 4.546875 7.234375 3.078125 15.484375 
" id="ArialMT-73"/>
     </defs>
     <g style="fill:#262626;" transform="translate(446.394375 596.83025)scale(0.176 -0.176)">
      <use xlink:href="#ArialMT-65"/>
      <use x="55.615234" xlink:href="#ArialMT-76"/>
      <use x="105.615234" xlink:href="#ArialMT-65"/>
      <use x="161.230469" xlink:href="#ArialMT-6e"/>
      <use x="216.845703" xlink:href="#ArialMT-74"/>
      <use x="244.628906" xlink:href="#ArialMT-73"/>
     </g>
    </g>
   </g>
   <g id="matplotlib.axis_2">
    <g id="ytick_1">
     <g id="line2d_11">
      <path clip-path="url(#p6efea3b928)" d="M 115.2 194.416 
L 829.44 194.416 
" style="fill:none;stroke:#ffffff;stroke-linecap:round;stroke-width:1.6;"/>
     </g>
     <g id="line2d_12"/>
     <g id="text_7">
      <!-- | 10 -->
      <defs>
       <path d="M 9.1875 -21.046875 
L 9.1875 72.796875 
L 16.84375 72.796875 
L 16.84375 -21.046875 
z
" id="ArialMT-7c"/>
       <path id="ArialMT-20"/>
       <path d="M 37.25 0 
L 28.46875 0 
L 28.46875 56 
Q 25.296875 52.984375 20.140625 49.953125 
Q 14.984375 46.921875 10.890625 45.40625 
L 10.890625 53.90625 
Q 18.265625 57.375 23.78125 62.296875 
Q 29.296875 67.234375 31.59375 71.875 
L 37.25 71.875 
z
" id="ArialMT-31"/>
      </defs>
      <g style="fill:#262626;" transform="translate(77.6025 200.23975)scale(0.16 -0.16)">
       <use xlink:href="#ArialMT-7c"/>
       <use x="25.976562" xlink:href="#ArialMT-20"/>
       <use x="53.759766" xlink:href="#ArialMT-31"/>
       <use x="109.375" xlink:href="#ArialMT-30"/>
      </g>
     </g>
    </g>
    <g id="ytick_2">
     <g id="line2d_13">
      <path clip-path="url(#p6efea3b928)" d="M 115.2 263.444571 
L 829.44 263.444571 
" style="fill:none;stroke:#ffffff;stroke-linecap:round;stroke-width:1.6;"/>
     </g>
     <g id="line2d_14"/>
     <g id="text_8">
      <!-- | 5 -->
      <defs>
       <path d="M 4.15625 18.75 
L 13.375 19.53125 
Q 14.40625 12.796875 18.140625 9.390625 
Q 21.875 6 27.15625 6 
Q 33.5 6 37.890625 10.78125 
Q 42.28125 15.578125 42.28125 23.484375 
Q 42.28125 31 38.0625 35.34375 
Q 33.84375 39.703125 27 39.703125 
Q 22.75 39.703125 19.328125 37.765625 
Q 15.921875 35.84375 13.96875 32.765625 
L 5.71875 33.84375 
L 12.640625 70.609375 
L 48.25 70.609375 
L 48.25 62.203125 
L 19.671875 62.203125 
L 15.828125 42.96875 
Q 22.265625 47.46875 29.34375 47.46875 
Q 38.71875 47.46875 45.15625 40.96875 
Q 51.609375 34.46875 51.609375 24.265625 
Q 51.609375 14.546875 45.953125 7.46875 
Q 39.0625 -1.21875 27.15625 -1.21875 
Q 17.390625 -1.21875 11.203125 4.25 
Q 5.03125 9.71875 4.15625 18.75 
" id="ArialMT-35"/>
      </defs>
      <g style="fill:#262626;" transform="translate(86.5 269.268321)scale(0.16 -0.16)">
       <use xlink:href="#ArialMT-7c"/>
       <use x="25.976562" xlink:href="#ArialMT-20"/>
       <use x="53.759766" xlink:href="#ArialMT-35"/>
      </g>
     </g>
    </g>
    <g id="ytick_3">
     <g id="line2d_15">
      <path clip-path="url(#p6efea3b928)" d="M 115.2 332.473143 
L 829.44 332.473143 
" style="fill:none;stroke:#ffffff;stroke-linecap:round;stroke-width:1.6;"/>
     </g>
     <g id="line2d_16"/>
     <g id="text_9">
      <!-- Spike Counts -->
      <defs>
       <path d="M 4.5 23 
L 13.421875 23.78125 
Q 14.0625 18.40625 16.375 14.96875 
Q 18.703125 11.53125 23.578125 9.40625 
Q 28.46875 7.28125 34.578125 7.28125 
Q 39.984375 7.28125 44.140625 8.890625 
Q 48.296875 10.5 50.3125 13.296875 
Q 52.34375 16.109375 52.34375 19.4375 
Q 52.34375 22.796875 50.390625 25.3125 
Q 48.4375 27.828125 43.953125 29.546875 
Q 41.0625 30.671875 31.203125 33.03125 
Q 21.34375 35.40625 17.390625 37.5 
Q 12.25 40.1875 9.734375 44.15625 
Q 7.234375 48.140625 7.234375 53.078125 
Q 7.234375 58.5 10.296875 63.203125 
Q 13.375 67.921875 19.28125 70.359375 
Q 25.203125 72.796875 32.421875 72.796875 
Q 40.375 72.796875 46.453125 70.234375 
Q 52.546875 67.671875 55.8125 62.6875 
Q 59.078125 57.71875 59.328125 51.421875 
L 50.25 50.734375 
Q 49.515625 57.515625 45.28125 60.984375 
Q 41.0625 64.453125 32.8125 64.453125 
Q 24.21875 64.453125 20.28125 61.296875 
Q 16.359375 58.15625 16.359375 53.71875 
Q 16.359375 49.859375 19.140625 47.359375 
Q 21.875 44.875 33.421875 42.265625 
Q 44.96875 39.65625 49.265625 37.703125 
Q 55.515625 34.8125 58.484375 30.390625 
Q 61.46875 25.984375 61.46875 20.21875 
Q 61.46875 14.5 58.203125 9.4375 
Q 54.9375 4.390625 48.796875 1.578125 
Q 42.671875 -1.21875 35.015625 -1.21875 
Q 25.296875 -1.21875 18.71875 1.609375 
Q 12.15625 4.4375 8.421875 10.125 
Q 4.6875 15.828125 4.5 23 
" id="ArialMT-53"/>
       <path d="M 6.59375 -19.875 
L 6.59375 51.859375 
L 14.59375 51.859375 
L 14.59375 45.125 
Q 17.4375 49.078125 21 51.046875 
Q 24.5625 53.03125 29.640625 53.03125 
Q 36.28125 53.03125 41.359375 49.609375 
Q 46.4375 46.1875 49.015625 39.953125 
Q 51.609375 33.734375 51.609375 26.3125 
Q 51.609375 18.359375 48.75 11.984375 
Q 45.90625 5.609375 40.453125 2.21875 
Q 35.015625 -1.171875 29 -1.171875 
Q 24.609375 -1.171875 21.109375 0.6875 
Q 17.625 2.546875 15.375 5.375 
L 15.375 -19.875 
z
M 14.546875 25.640625 
Q 14.546875 15.625 18.59375 10.84375 
Q 22.65625 6.0625 28.421875 6.0625 
Q 34.28125 6.0625 38.453125 11.015625 
Q 42.625 15.96875 42.625 26.375 
Q 42.625 36.28125 38.546875 41.203125 
Q 34.46875 46.140625 28.8125 46.140625 
Q 23.1875 46.140625 18.859375 40.890625 
Q 14.546875 35.640625 14.546875 25.640625 
" id="ArialMT-70"/>
       <path d="M 6.640625 61.46875 
L 6.640625 71.578125 
L 15.4375 71.578125 
L 15.4375 61.46875 
z
M 6.640625 0 
L 6.640625 51.859375 
L 15.4375 51.859375 
L 15.4375 0 
z
" id="ArialMT-69"/>
       <path d="M 6.640625 0 
L 6.640625 71.578125 
L 15.4375 71.578125 
L 15.4375 30.765625 
L 36.234375 51.859375 
L 47.609375 51.859375 
L 27.78125 32.625 
L 49.609375 0 
L 38.765625 0 
L 21.625 26.515625 
L 15.4375 20.5625 
L 15.4375 0 
z
" id="ArialMT-6b"/>
       <path d="M 58.796875 25.09375 
L 68.265625 22.703125 
Q 65.28125 11.03125 57.546875 4.90625 
Q 49.8125 -1.21875 38.625 -1.21875 
Q 27.046875 -1.21875 19.796875 3.484375 
Q 12.546875 8.203125 8.765625 17.140625 
Q 4.984375 26.078125 4.984375 36.328125 
Q 4.984375 47.515625 9.25 55.828125 
Q 13.53125 64.15625 21.40625 68.46875 
Q 29.296875 72.796875 38.765625 72.796875 
Q 49.515625 72.796875 56.828125 67.328125 
Q 64.15625 61.859375 67.046875 51.953125 
L 57.71875 49.75 
Q 55.21875 57.5625 50.484375 61.125 
Q 45.75 64.703125 38.578125 64.703125 
Q 30.328125 64.703125 24.78125 60.734375 
Q 19.234375 56.78125 16.984375 50.109375 
Q 14.75 43.453125 14.75 36.375 
Q 14.75 27.25 17.40625 20.4375 
Q 20.0625 13.625 25.671875 10.25 
Q 31.296875 6.890625 37.84375 6.890625 
Q 45.796875 6.890625 51.3125 11.46875 
Q 56.84375 16.0625 58.796875 25.09375 
" id="ArialMT-43"/>
       <path d="M 3.328125 25.921875 
Q 3.328125 40.328125 11.328125 47.265625 
Q 18.015625 53.03125 27.640625 53.03125 
Q 38.328125 53.03125 45.109375 46.015625 
Q 51.90625 39.015625 51.90625 26.65625 
Q 51.90625 16.65625 48.90625 10.90625 
Q 45.90625 5.171875 40.15625 2 
Q 34.421875 -1.171875 27.640625 -1.171875 
Q 16.75 -1.171875 10.03125 5.8125 
Q 3.328125 12.796875 3.328125 25.921875 
M 12.359375 25.921875 
Q 12.359375 15.96875 16.703125 11.015625 
Q 21.046875 6.0625 27.640625 6.0625 
Q 34.1875 6.0625 38.53125 11.03125 
Q 42.875 16.015625 42.875 26.21875 
Q 42.875 35.84375 38.5 40.796875 
Q 34.125 45.75 27.640625 45.75 
Q 21.046875 45.75 16.703125 40.8125 
Q 12.359375 35.890625 12.359375 25.921875 
" id="ArialMT-6f"/>
       <path d="M 40.578125 0 
L 40.578125 7.625 
Q 34.515625 -1.171875 24.125 -1.171875 
Q 19.53125 -1.171875 15.546875 0.578125 
Q 11.578125 2.34375 9.640625 5 
Q 7.71875 7.671875 6.9375 11.53125 
Q 6.390625 14.109375 6.390625 19.734375 
L 6.390625 51.859375 
L 15.1875 51.859375 
L 15.1875 23.09375 
Q 15.1875 16.21875 15.71875 13.8125 
Q 16.546875 10.359375 19.234375 8.375 
Q 21.921875 6.390625 25.875 6.390625 
Q 29.828125 6.390625 33.296875 8.421875 
Q 36.765625 10.453125 38.203125 13.9375 
Q 39.65625 17.4375 39.65625 24.078125 
L 39.65625 51.859375 
L 48.4375 51.859375 
L 48.4375 0 
z
" id="ArialMT-75"/>
      </defs>
      <g style="fill:#262626;" transform="translate(8.84 338.296893)scale(0.16 -0.16)">
       <use xlink:href="#ArialMT-53"/>
       <use x="66.699219" xlink:href="#ArialMT-70"/>
       <use x="122.314453" xlink:href="#ArialMT-69"/>
       <use x="144.53125" xlink:href="#ArialMT-6b"/>
       <use x="194.53125" xlink:href="#ArialMT-65"/>
       <use x="250.146484" xlink:href="#ArialMT-20"/>
       <use x="277.929688" xlink:href="#ArialMT-43"/>
       <use x="350.146484" xlink:href="#ArialMT-6f"/>
       <use x="405.761719" xlink:href="#ArialMT-75"/>
       <use x="461.376953" xlink:href="#ArialMT-6e"/>
       <use x="516.992188" xlink:href="#ArialMT-74"/>
       <use x="544.775391" xlink:href="#ArialMT-73"/>
      </g>
     </g>
    </g>
    <g id="ytick_4">
     <g id="line2d_17">
      <path clip-path="url(#p6efea3b928)" d="M 115.2 394.598857 
L 829.44 394.598857 
" style="fill:none;stroke:#ffffff;stroke-linecap:round;stroke-width:1.6;"/>
     </g>
     <g id="line2d_18"/>
     <g id="text_10">
      <!-- Fast Modulator -->
      <defs>
       <path d="M 8.203125 0 
L 8.203125 71.578125 
L 56.5 71.578125 
L 56.5 63.140625 
L 17.671875 63.140625 
L 17.671875 40.96875 
L 51.265625 40.96875 
L 51.265625 32.515625 
L 17.671875 32.515625 
L 17.671875 0 
z
" id="ArialMT-46"/>
       <path d="M 40.4375 6.390625 
Q 35.546875 2.25 31.03125 0.53125 
Q 26.515625 -1.171875 21.34375 -1.171875 
Q 12.796875 -1.171875 8.203125 3 
Q 3.609375 7.171875 3.609375 13.671875 
Q 3.609375 17.484375 5.34375 20.625 
Q 7.078125 23.78125 9.890625 25.6875 
Q 12.703125 27.59375 16.21875 28.5625 
Q 18.796875 29.25 24.03125 29.890625 
Q 34.671875 31.15625 39.703125 32.90625 
Q 39.75 34.71875 39.75 35.203125 
Q 39.75 40.578125 37.25 42.78125 
Q 33.890625 45.75 27.25 45.75 
Q 21.046875 45.75 18.09375 43.578125 
Q 15.140625 41.40625 13.71875 35.890625 
L 5.125 37.0625 
Q 6.296875 42.578125 8.984375 45.96875 
Q 11.671875 49.359375 16.75 51.1875 
Q 21.828125 53.03125 28.515625 53.03125 
Q 35.15625 53.03125 39.296875 51.46875 
Q 43.453125 49.90625 45.40625 47.53125 
Q 47.359375 45.171875 48.140625 41.546875 
Q 48.578125 39.3125 48.578125 33.453125 
L 48.578125 21.734375 
Q 48.578125 9.46875 49.140625 6.21875 
Q 49.703125 2.984375 51.375 0 
L 42.1875 0 
Q 40.828125 2.734375 40.4375 6.390625 
M 39.703125 26.03125 
Q 34.90625 24.078125 25.34375 22.703125 
Q 19.921875 21.921875 17.671875 20.9375 
Q 15.4375 19.96875 14.203125 18.09375 
Q 12.984375 16.21875 12.984375 13.921875 
Q 12.984375 10.40625 15.640625 8.0625 
Q 18.3125 5.71875 23.4375 5.71875 
Q 28.515625 5.71875 32.46875 7.9375 
Q 36.421875 10.15625 38.28125 14.015625 
Q 39.703125 17 39.703125 22.796875 
z
" id="ArialMT-61"/>
       <path d="M 7.421875 0 
L 7.421875 71.578125 
L 21.6875 71.578125 
L 38.625 20.90625 
Q 40.96875 13.8125 42.046875 10.296875 
Q 43.265625 14.203125 45.84375 21.78125 
L 62.984375 71.578125 
L 75.734375 71.578125 
L 75.734375 0 
L 66.609375 0 
L 66.609375 59.90625 
L 45.796875 0 
L 37.25 0 
L 16.546875 60.9375 
L 16.546875 0 
z
" id="ArialMT-4d"/>
       <path d="M 40.234375 0 
L 40.234375 6.546875 
Q 35.296875 -1.171875 25.734375 -1.171875 
Q 19.53125 -1.171875 14.328125 2.25 
Q 9.125 5.671875 6.265625 11.796875 
Q 3.421875 17.921875 3.421875 25.875 
Q 3.421875 33.640625 6 39.96875 
Q 8.59375 46.296875 13.765625 49.65625 
Q 18.953125 53.03125 25.34375 53.03125 
Q 30.03125 53.03125 33.6875 51.046875 
Q 37.359375 49.078125 39.65625 45.90625 
L 39.65625 71.578125 
L 48.390625 71.578125 
L 48.390625 0 
z
M 12.453125 25.875 
Q 12.453125 15.921875 16.640625 10.984375 
Q 20.84375 6.0625 26.5625 6.0625 
Q 32.328125 6.0625 36.34375 10.765625 
Q 40.375 15.484375 40.375 25.140625 
Q 40.375 35.796875 36.265625 40.765625 
Q 32.171875 45.75 26.171875 45.75 
Q 20.3125 45.75 16.375 40.96875 
Q 12.453125 36.1875 12.453125 25.875 
" id="ArialMT-64"/>
       <path d="M 6.390625 0 
L 6.390625 71.578125 
L 15.1875 71.578125 
L 15.1875 0 
z
" id="ArialMT-6c"/>
       <path d="M 6.5 0 
L 6.5 51.859375 
L 14.40625 51.859375 
L 14.40625 44 
Q 17.4375 49.515625 20 51.265625 
Q 22.5625 53.03125 25.640625 53.03125 
Q 30.078125 53.03125 34.671875 50.203125 
L 31.640625 42.046875 
Q 28.421875 43.953125 25.203125 43.953125 
Q 22.3125 43.953125 20.015625 42.21875 
Q 17.71875 40.484375 16.75 37.40625 
Q 15.28125 32.71875 15.28125 27.15625 
L 15.28125 0 
z
" id="ArialMT-72"/>
      </defs>
      <g style="fill:#262626;" transform="translate(-2.7025 400.325107)scale(0.16 -0.16)">
       <use xlink:href="#ArialMT-46"/>
       <use x="61.083984" xlink:href="#ArialMT-61"/>
       <use x="116.699219" xlink:href="#ArialMT-73"/>
       <use x="166.699219" xlink:href="#ArialMT-74"/>
       <use x="194.482422" xlink:href="#ArialMT-20"/>
       <use x="222.265625" xlink:href="#ArialMT-4d"/>
       <use x="305.566406" xlink:href="#ArialMT-6f"/>
       <use x="361.181641" xlink:href="#ArialMT-64"/>
       <use x="416.796875" xlink:href="#ArialMT-75"/>
       <use x="472.412109" xlink:href="#ArialMT-6c"/>
       <use x="494.628906" xlink:href="#ArialMT-61"/>
       <use x="550.244141" xlink:href="#ArialMT-74"/>
       <use x="578.027344" xlink:href="#ArialMT-6f"/>
       <use x="633.642578" xlink:href="#ArialMT-72"/>
      </g>
     </g>
    </g>
    <g id="ytick_5">
     <g id="line2d_19">
      <path clip-path="url(#p6efea3b928)" d="M 115.2 470.530286 
L 829.44 470.530286 
" style="fill:none;stroke:#ffffff;stroke-linecap:round;stroke-width:1.6;"/>
     </g>
     <g id="line2d_20"/>
     <g id="text_11">
      <!-- Slow Drift -->
      <defs>
       <path d="M 16.15625 0 
L 0.296875 51.859375 
L 9.375 51.859375 
L 17.625 21.921875 
L 20.703125 10.796875 
Q 20.90625 11.625 23.390625 21.484375 
L 31.640625 51.859375 
L 40.671875 51.859375 
L 48.4375 21.78125 
L 51.03125 11.859375 
L 54 21.875 
L 62.890625 51.859375 
L 71.4375 51.859375 
L 55.21875 0 
L 46.09375 0 
L 37.84375 31.0625 
L 35.84375 39.890625 
L 25.34375 0 
z
" id="ArialMT-77"/>
       <path d="M 7.71875 0 
L 7.71875 71.578125 
L 32.375 71.578125 
Q 40.71875 71.578125 45.125 70.5625 
Q 51.265625 69.140625 55.609375 65.4375 
Q 61.28125 60.640625 64.078125 53.1875 
Q 66.890625 45.75 66.890625 36.1875 
Q 66.890625 28.03125 64.984375 21.734375 
Q 63.09375 15.4375 60.109375 11.296875 
Q 57.125 7.171875 53.578125 4.796875 
Q 50.046875 2.4375 45.046875 1.21875 
Q 40.046875 0 33.546875 0 
z
M 17.1875 8.453125 
L 32.46875 8.453125 
Q 39.546875 8.453125 43.578125 9.765625 
Q 47.609375 11.078125 50 13.484375 
Q 53.375 16.84375 55.25 22.53125 
Q 57.125 28.21875 57.125 36.328125 
Q 57.125 47.5625 53.4375 53.59375 
Q 49.75 59.625 44.484375 61.671875 
Q 40.671875 63.140625 32.234375 63.140625 
L 17.1875 63.140625 
z
" id="ArialMT-44"/>
       <path d="M 8.6875 0 
L 8.6875 45.015625 
L 0.921875 45.015625 
L 0.921875 51.859375 
L 8.6875 51.859375 
L 8.6875 57.375 
Q 8.6875 62.59375 9.625 65.140625 
Q 10.890625 68.5625 14.078125 70.671875 
Q 17.28125 72.796875 23.046875 72.796875 
Q 26.765625 72.796875 31.25 71.921875 
L 29.9375 64.265625 
Q 27.203125 64.75 24.75 64.75 
Q 20.75 64.75 19.09375 63.03125 
Q 17.4375 61.328125 17.4375 56.640625 
L 17.4375 51.859375 
L 27.546875 51.859375 
L 27.546875 45.015625 
L 17.4375 45.015625 
L 17.4375 0 
z
" id="ArialMT-66"/>
      </defs>
      <g style="fill:#262626;" transform="translate(35.5475 476.256536)scale(0.16 -0.16)">
       <use xlink:href="#ArialMT-53"/>
       <use x="66.699219" xlink:href="#ArialMT-6c"/>
       <use x="88.916016" xlink:href="#ArialMT-6f"/>
       <use x="144.53125" xlink:href="#ArialMT-77"/>
       <use x="216.748047" xlink:href="#ArialMT-20"/>
       <use x="244.53125" xlink:href="#ArialMT-44"/>
       <use x="316.748047" xlink:href="#ArialMT-72"/>
       <use x="350.048828" xlink:href="#ArialMT-69"/>
       <use x="372.265625" xlink:href="#ArialMT-66"/>
       <use x="400.048828" xlink:href="#ArialMT-74"/>
      </g>
     </g>
    </g>
    <g id="ytick_6">
     <g id="line2d_21">
      <path clip-path="url(#p6efea3b928)" d="M 115.2 532.656 
L 829.44 532.656 
" style="fill:none;stroke:#ffffff;stroke-linecap:round;stroke-width:1.6;"/>
     </g>
     <g id="line2d_22"/>
     <g id="text_12">
      <!-- Cue -->
      <g style="fill:#262626;" transform="translate(74.65 538.38225)scale(0.16 -0.16)">
       <use xlink:href="#ArialMT-43"/>
       <use x="72.216797" xlink:href="#ArialMT-75"/>
       <use x="127.832031" xlink:href="#ArialMT-65"/>
      </g>
     </g>
    </g>
   </g>
   <g id="line2d_23">
    <path clip-path="url(#p6efea3b928)" d="M 147.665455 304.861714 
L 148.389322 304.861714 
L 149.113189 291.056 
L 149.837057 304.861714 
L 150.560924 277.250286 
L 151.284792 291.056 
L 152.008659 249.638857 
L 152.732527 304.861714 
L 153.456394 249.638857 
L 154.180261 277.250286 
L 155.627996 304.861714 
L 156.351864 304.861714 
L 157.075731 332.473143 
L 157.799599 304.861714 
L 158.523466 304.861714 
L 159.247334 277.250286 
L 159.971201 304.861714 
L 162.142803 304.861714 
L 163.590538 277.250286 
L 164.314406 332.473143 
L 165.038273 318.667429 
L 165.76214 291.056 
L 166.486008 291.056 
L 167.209875 277.250286 
L 167.933743 249.638857 
L 168.65761 304.861714 
L 169.381478 291.056 
L 170.105345 304.861714 
L 170.829213 304.861714 
L 171.55308 291.056 
L 172.276947 318.667429 
L 173.000815 318.667429 
L 173.724682 291.056 
L 174.44855 318.667429 
L 175.172417 332.473143 
L 176.620152 277.250286 
L 177.344019 208.221714 
L 178.067887 318.667429 
L 178.791754 304.861714 
L 179.515622 318.667429 
L 180.239489 277.250286 
L 180.963357 277.250286 
L 181.687224 304.861714 
L 182.411092 318.667429 
L 183.134959 304.861714 
L 183.858826 318.667429 
L 184.582694 291.056 
L 186.754296 332.473143 
L 187.478164 277.250286 
L 188.925898 304.861714 
L 189.649766 304.861714 
L 190.373633 249.638857 
L 191.097501 318.667429 
L 191.821368 277.250286 
L 192.545236 249.638857 
L 193.269103 318.667429 
L 193.992971 304.861714 
L 194.716838 263.444571 
L 196.164573 318.667429 
L 196.88844 318.667429 
L 197.612308 263.444571 
L 198.336175 318.667429 
L 199.060043 318.667429 
L 199.78391 291.056 
L 200.507777 291.056 
L 201.231645 277.250286 
L 201.955512 291.056 
L 202.67938 291.056 
L 203.403247 277.250286 
L 204.127115 277.250286 
L 204.850982 263.444571 
L 205.574849 318.667429 
L 206.298717 222.027429 
L 207.022584 291.056 
L 207.746452 291.056 
L 208.470319 277.250286 
L 209.194187 249.638857 
L 209.918054 291.056 
L 210.641922 263.444571 
L 211.365789 318.667429 
L 212.089656 304.861714 
L 212.813524 332.473143 
L 214.985126 332.473143 
L 215.708994 304.861714 
L 216.432861 304.861714 
L 217.156728 277.250286 
L 217.880596 318.667429 
L 218.604463 304.861714 
L 219.328331 304.861714 
L 220.052198 318.667429 
L 221.499933 291.056 
L 222.947668 291.056 
L 223.671535 304.861714 
L 224.395403 291.056 
L 225.11927 235.833143 
L 225.843138 318.667429 
L 226.567005 291.056 
L 227.290873 332.473143 
L 228.01474 291.056 
L 228.738607 277.250286 
L 229.462475 291.056 
L 230.186342 332.473143 
L 230.91021 249.638857 
L 231.634077 277.250286 
L 232.357945 277.250286 
L 233.081812 208.221714 
L 233.80568 291.056 
L 234.529547 318.667429 
L 235.253414 263.444571 
L 235.977282 277.250286 
L 236.701149 277.250286 
L 237.425017 304.861714 
L 238.148884 291.056 
L 238.872752 291.056 
L 239.596619 318.667429 
L 240.320486 304.861714 
L 241.044354 304.861714 
L 241.768221 332.473143 
L 242.492089 304.861714 
L 243.215956 291.056 
L 243.939824 304.861714 
L 244.663691 291.056 
L 245.387559 291.056 
L 246.111426 249.638857 
L 246.835293 304.861714 
L 247.559161 318.667429 
L 248.283028 304.861714 
L 249.006896 249.638857 
L 249.730763 304.861714 
L 250.454631 249.638857 
L 251.178498 291.056 
L 251.902365 318.667429 
L 252.626233 304.861714 
L 253.3501 318.667429 
L 254.073968 304.861714 
L 254.797835 304.861714 
L 255.521703 332.473143 
L 256.24557 332.473143 
L 256.969438 291.056 
L 257.693305 304.861714 
L 259.14104 304.861714 
L 259.864907 277.250286 
L 261.312642 249.638857 
L 262.03651 291.056 
L 262.760377 208.221714 
L 263.484244 249.638857 
L 264.931979 304.861714 
L 265.655847 263.444571 
L 266.379714 291.056 
L 267.103582 291.056 
L 267.827449 304.861714 
L 268.551317 291.056 
L 269.275184 318.667429 
L 269.999051 318.667429 
L 270.722919 263.444571 
L 271.446786 318.667429 
L 272.170654 318.667429 
L 272.894521 304.861714 
L 273.618389 249.638857 
L 274.342256 263.444571 
L 275.066123 249.638857 
L 275.789991 318.667429 
L 276.513858 304.861714 
L 277.237726 263.444571 
L 277.961593 263.444571 
L 278.685461 304.861714 
L 279.409328 277.250286 
L 280.133196 332.473143 
L 280.857063 291.056 
L 281.58093 318.667429 
L 282.304798 304.861714 
L 283.028665 318.667429 
L 283.752533 318.667429 
L 284.4764 291.056 
L 285.200268 332.473143 
L 285.924135 277.250286 
L 287.37187 249.638857 
L 288.095737 249.638857 
L 288.819605 222.027429 
L 289.543472 277.250286 
L 290.26734 235.833143 
L 290.991207 277.250286 
L 291.715074 304.861714 
L 292.438942 291.056 
L 293.162809 304.861714 
L 293.886677 291.056 
L 294.610544 291.056 
L 295.334412 318.667429 
L 296.782147 291.056 
L 297.506014 291.056 
L 298.229881 304.861714 
L 298.953749 304.861714 
L 299.677616 249.638857 
L 300.401484 291.056 
L 301.125351 235.833143 
L 302.573086 263.444571 
L 303.296953 235.833143 
L 304.020821 263.444571 
L 304.744688 304.861714 
L 305.468556 235.833143 
L 306.192423 263.444571 
L 306.916291 277.250286 
L 307.640158 304.861714 
L 308.364026 277.250286 
L 309.087893 277.250286 
L 310.535628 304.861714 
L 311.259495 277.250286 
L 311.983363 304.861714 
L 312.70723 291.056 
L 313.431098 291.056 
L 314.154965 249.638857 
L 314.878832 318.667429 
L 315.6027 208.221714 
L 316.326567 277.250286 
L 317.050435 304.861714 
L 317.774302 222.027429 
L 318.49817 222.027429 
L 319.222037 235.833143 
L 319.945905 263.444571 
L 320.669772 304.861714 
L 321.393639 318.667429 
L 322.117507 277.250286 
L 322.841374 318.667429 
L 323.565242 291.056 
L 324.289109 304.861714 
L 325.736844 222.027429 
L 326.460711 277.250286 
L 327.184579 277.250286 
L 327.908446 235.833143 
L 328.632314 235.833143 
L 329.356181 249.638857 
L 330.080049 249.638857 
L 331.527784 222.027429 
L 332.251651 277.250286 
L 332.975518 235.833143 
L 333.699386 291.056 
L 334.423253 291.056 
L 335.147121 304.861714 
L 335.870988 304.861714 
L 336.594856 277.250286 
L 337.318723 318.667429 
L 338.766458 291.056 
L 339.490325 318.667429 
L 340.214193 291.056 
L 340.93806 291.056 
L 341.661928 235.833143 
L 342.385795 194.416 
L 343.109663 263.444571 
L 343.83353 249.638857 
L 345.281265 249.638857 
L 346.729 277.250286 
L 347.452867 304.861714 
L 348.900602 277.250286 
L 349.624469 332.473143 
L 350.348337 249.638857 
L 351.072204 332.473143 
L 351.796072 291.056 
L 352.519939 277.250286 
L 353.243807 304.861714 
L 353.967674 277.250286 
L 354.691542 208.221714 
L 355.415409 222.027429 
L 356.139276 222.027429 
L 356.863144 249.638857 
L 357.587011 263.444571 
L 358.310879 318.667429 
L 359.034746 208.221714 
L 359.758614 249.638857 
L 360.482481 263.444571 
L 361.206348 249.638857 
L 361.930216 263.444571 
L 364.101818 263.444571 
L 364.825686 291.056 
L 365.549553 277.250286 
L 366.27342 249.638857 
L 366.997288 291.056 
L 367.721155 180.610286 
L 368.445023 291.056 
L 369.16889 291.056 
L 369.892758 180.610286 
L 370.616625 208.221714 
L 371.340493 263.444571 
L 372.06436 291.056 
L 372.788227 263.444571 
L 373.512095 249.638857 
L 374.235962 263.444571 
L 374.95983 291.056 
L 375.683697 277.250286 
L 376.407565 277.250286 
L 377.855299 304.861714 
L 378.579167 263.444571 
L 379.303034 304.861714 
L 380.026902 332.473143 
L 380.750769 263.444571 
L 381.474637 277.250286 
L 382.922372 249.638857 
L 384.370106 194.416 
L 385.093974 249.638857 
L 385.817841 249.638857 
L 386.541709 291.056 
L 387.989444 263.444571 
L 388.713311 291.056 
L 390.161046 263.444571 
L 391.608781 318.667429 
L 393.056516 235.833143 
L 393.780383 277.250286 
L 394.504251 194.416 
L 395.228118 222.027429 
L 396.675853 249.638857 
L 397.39972 222.027429 
L 398.123588 208.221714 
L 398.847455 291.056 
L 399.571323 222.027429 
L 401.019057 194.416 
L 401.742925 235.833143 
L 402.466792 304.861714 
L 403.19066 291.056 
L 403.914527 249.638857 
L 404.638395 304.861714 
L 405.362262 304.861714 
L 406.08613 249.638857 
L 406.809997 277.250286 
L 408.257732 249.638857 
L 408.981599 249.638857 
L 409.705467 208.221714 
L 410.429334 235.833143 
L 411.153202 249.638857 
L 411.877069 166.804571 
L 412.600936 263.444571 
L 413.324804 263.444571 
L 414.048671 277.250286 
L 414.772539 194.416 
L 415.496406 235.833143 
L 416.220274 318.667429 
L 416.944141 291.056 
L 417.668009 304.861714 
L 418.391876 291.056 
L 419.115743 291.056 
L 419.839611 263.444571 
L 420.563478 263.444571 
L 421.287346 235.833143 
L 422.011213 263.444571 
L 422.735081 249.638857 
L 423.458948 277.250286 
L 424.906683 166.804571 
L 425.63055 277.250286 
L 426.354418 194.416 
L 427.078285 235.833143 
L 427.802153 249.638857 
L 428.52602 249.638857 
L 429.249888 263.444571 
L 429.973755 304.861714 
L 430.697622 277.250286 
L 431.42149 332.473143 
L 432.145357 249.638857 
L 434.31696 291.056 
L 435.040827 263.444571 
L 435.764694 277.250286 
L 436.488562 235.833143 
L 437.212429 166.804571 
L 437.936297 222.027429 
L 438.660164 235.833143 
L 439.384032 194.416 
L 440.107899 180.610286 
L 440.831766 222.027429 
L 441.555634 222.027429 
L 442.279501 291.056 
L 443.003369 180.610286 
L 443.727236 277.250286 
L 444.451104 235.833143 
L 445.174971 277.250286 
L 445.898839 194.416 
L 446.622706 277.250286 
L 447.346573 277.250286 
L 448.070441 222.027429 
L 448.794308 263.444571 
L 449.518176 235.833143 
L 450.242043 194.416 
L 450.965911 263.444571 
L 451.689778 180.610286 
L 453.137513 263.444571 
L 453.86138 194.416 
L 454.585248 263.444571 
L 456.032983 291.056 
L 456.75685 235.833143 
L 457.480718 263.444571 
L 458.204585 318.667429 
L 458.928452 318.667429 
L 459.65232 249.638857 
L 460.376187 277.250286 
L 461.100055 235.833143 
L 462.54779 263.444571 
L 463.995524 208.221714 
L 464.719392 222.027429 
L 465.443259 208.221714 
L 466.167127 208.221714 
L 466.890994 222.027429 
L 467.614862 208.221714 
L 468.338729 249.638857 
L 469.062597 277.250286 
L 469.786464 235.833143 
L 470.510331 263.444571 
L 471.234199 235.833143 
L 471.958066 291.056 
L 472.681934 304.861714 
L 474.129669 304.861714 
L 474.853536 277.250286 
L 475.577403 263.444571 
L 476.301271 277.250286 
L 477.025138 166.804571 
L 477.749006 208.221714 
L 478.472873 194.416 
L 479.196741 139.193143 
L 479.920608 263.444571 
L 480.644476 291.056 
L 481.368343 235.833143 
L 482.09221 208.221714 
L 482.816078 208.221714 
L 484.263813 235.833143 
L 484.98768 291.056 
L 485.711548 291.056 
L 486.435415 277.250286 
L 487.159282 304.861714 
L 487.88315 263.444571 
L 489.330885 235.833143 
L 490.054752 180.610286 
L 490.77862 249.638857 
L 492.226355 194.416 
L 492.950222 208.221714 
L 493.674089 180.610286 
L 494.397957 235.833143 
L 495.121824 318.667429 
L 495.845692 291.056 
L 496.569559 222.027429 
L 497.293427 291.056 
L 498.017294 304.861714 
L 498.741161 277.250286 
L 499.465029 304.861714 
L 500.188896 277.250286 
L 500.912764 304.861714 
L 501.636631 249.638857 
L 502.360499 263.444571 
L 503.084366 208.221714 
L 503.808234 235.833143 
L 504.532101 235.833143 
L 505.255968 125.387429 
L 505.979836 263.444571 
L 506.703703 263.444571 
L 507.427571 235.833143 
L 508.151438 249.638857 
L 508.875306 277.250286 
L 509.599173 277.250286 
L 510.32304 291.056 
L 511.046908 235.833143 
L 511.770775 304.861714 
L 513.21851 249.638857 
L 513.942378 291.056 
L 514.666245 304.861714 
L 515.390112 194.416 
L 516.11398 304.861714 
L 516.837847 277.250286 
L 517.561715 194.416 
L 518.285582 235.833143 
L 519.00945 166.804571 
L 519.733317 291.056 
L 520.457185 249.638857 
L 521.181052 235.833143 
L 522.628787 180.610286 
L 523.352654 235.833143 
L 524.076522 249.638857 
L 524.800389 304.861714 
L 525.524257 277.250286 
L 526.248124 235.833143 
L 527.695859 291.056 
L 528.419726 291.056 
L 529.143594 208.221714 
L 529.867461 318.667429 
L 530.591329 277.250286 
L 532.039064 222.027429 
L 532.762931 277.250286 
L 533.486798 180.610286 
L 534.934533 291.056 
L 535.658401 208.221714 
L 536.382268 249.638857 
L 537.106136 263.444571 
L 537.830003 249.638857 
L 538.55387 277.250286 
L 540.001605 304.861714 
L 540.725473 263.444571 
L 541.44934 304.861714 
L 542.173208 235.833143 
L 542.897075 304.861714 
L 543.620943 249.638857 
L 544.34481 235.833143 
L 545.068677 194.416 
L 545.792545 180.610286 
L 546.516412 222.027429 
L 547.24028 249.638857 
L 547.964147 222.027429 
L 548.688015 249.638857 
L 549.411882 263.444571 
L 550.135749 249.638857 
L 550.859617 249.638857 
L 551.583484 291.056 
L 552.307352 263.444571 
L 553.031219 249.638857 
L 553.755087 291.056 
L 554.478954 304.861714 
L 555.926689 304.861714 
L 556.650556 291.056 
L 557.374424 263.444571 
L 558.098291 263.444571 
L 558.822159 222.027429 
L 559.546026 194.416 
L 560.269894 263.444571 
L 560.993761 152.998857 
L 561.717628 235.833143 
L 562.441496 180.610286 
L 563.165363 263.444571 
L 563.889231 194.416 
L 564.613098 277.250286 
L 565.336966 235.833143 
L 566.060833 277.250286 
L 566.784701 304.861714 
L 567.508568 222.027429 
L 568.232435 277.250286 
L 568.956303 304.861714 
L 569.68017 277.250286 
L 570.404038 304.861714 
L 571.127905 304.861714 
L 571.851773 222.027429 
L 572.57564 249.638857 
L 573.299507 235.833143 
L 574.023375 277.250286 
L 574.747242 263.444571 
L 575.47111 208.221714 
L 576.194977 222.027429 
L 576.918845 194.416 
L 577.642712 235.833143 
L 578.36658 304.861714 
L 579.090447 249.638857 
L 579.814314 277.250286 
L 580.538182 291.056 
L 581.262049 277.250286 
L 581.985917 304.861714 
L 582.709784 263.444571 
L 583.433652 249.638857 
L 584.157519 263.444571 
L 584.881386 304.861714 
L 585.605254 180.610286 
L 586.329121 208.221714 
L 587.052989 263.444571 
L 587.776856 235.833143 
L 588.500724 263.444571 
L 589.224591 194.416 
L 589.948458 222.027429 
L 590.672326 304.861714 
L 591.396193 222.027429 
L 592.120061 291.056 
L 592.843928 318.667429 
L 593.567796 277.250286 
L 594.291663 291.056 
L 595.015531 291.056 
L 595.739398 304.861714 
L 597.187133 304.861714 
L 597.911 332.473143 
L 598.634868 222.027429 
L 599.358735 249.638857 
L 600.082603 222.027429 
L 600.80647 291.056 
L 601.530337 235.833143 
L 602.254205 277.250286 
L 602.978072 304.861714 
L 603.70194 194.416 
L 604.425807 249.638857 
L 605.149675 277.250286 
L 605.873542 235.833143 
L 606.59741 304.861714 
L 607.321277 277.250286 
L 608.045144 304.861714 
L 609.492879 304.861714 
L 610.216747 249.638857 
L 610.940614 291.056 
L 611.664482 291.056 
L 612.388349 222.027429 
L 613.112216 249.638857 
L 613.836084 180.610286 
L 614.559951 166.804571 
L 615.283819 263.444571 
L 616.007686 208.221714 
L 616.731554 263.444571 
L 617.455421 277.250286 
L 618.179289 304.861714 
L 618.903156 263.444571 
L 620.350891 318.667429 
L 621.074758 304.861714 
L 621.798626 304.861714 
L 622.522493 263.444571 
L 623.246361 304.861714 
L 623.970228 304.861714 
L 624.694095 277.250286 
L 625.417963 304.861714 
L 626.14183 263.444571 
L 626.865698 263.444571 
L 627.589565 291.056 
L 628.313433 235.833143 
L 629.0373 277.250286 
L 630.485035 277.250286 
L 631.208902 304.861714 
L 631.93277 304.861714 
L 632.656637 277.250286 
L 633.380505 304.861714 
L 634.104372 291.056 
L 634.82824 332.473143 
L 635.552107 291.056 
L 636.275974 304.861714 
L 636.999842 304.861714 
L 637.723709 332.473143 
L 639.171444 304.861714 
L 639.895312 263.444571 
L 640.619179 291.056 
L 641.343047 291.056 
L 642.066914 208.221714 
L 642.790781 97.776 
L 643.514649 208.221714 
L 644.238516 249.638857 
L 644.962384 235.833143 
L 645.686251 235.833143 
L 646.410119 291.056 
L 647.133986 291.056 
L 647.857853 263.444571 
L 648.581721 263.444571 
L 649.305588 332.473143 
L 650.029456 194.416 
L 650.753323 291.056 
L 651.477191 304.861714 
L 652.201058 291.056 
L 652.924926 263.444571 
L 654.37266 291.056 
L 655.096528 152.998857 
L 655.820395 304.861714 
L 656.544263 304.861714 
L 657.26813 263.444571 
L 657.991998 277.250286 
L 658.715865 332.473143 
L 659.439732 304.861714 
L 660.1636 291.056 
L 660.887467 249.638857 
L 661.611335 304.861714 
L 663.782937 304.861714 
L 664.506804 263.444571 
L 665.230672 304.861714 
L 665.954539 291.056 
L 666.678407 208.221714 
L 667.402274 277.250286 
L 668.126142 235.833143 
L 668.850009 249.638857 
L 669.573877 208.221714 
L 670.297744 249.638857 
L 671.021611 249.638857 
L 671.745479 263.444571 
L 672.469346 291.056 
L 673.193214 277.250286 
L 673.917081 318.667429 
L 675.364816 318.667429 
L 676.088683 291.056 
L 676.812551 318.667429 
L 678.984153 277.250286 
L 679.708021 318.667429 
L 680.431888 235.833143 
L 681.155756 318.667429 
L 681.879623 249.638857 
L 682.60349 208.221714 
L 683.327358 291.056 
L 684.051225 263.444571 
L 684.775093 249.638857 
L 685.49896 263.444571 
L 686.222828 263.444571 
L 687.670562 318.667429 
L 688.39443 318.667429 
L 689.118297 332.473143 
L 689.842165 277.250286 
L 690.566032 318.667429 
L 692.013767 291.056 
L 693.461502 318.667429 
L 694.185369 263.444571 
L 694.909237 304.861714 
L 695.633104 263.444571 
L 696.356972 277.250286 
L 697.080839 277.250286 
L 697.804707 249.638857 
L 698.528574 318.667429 
L 699.252441 291.056 
L 700.700176 263.444571 
L 701.424044 304.861714 
L 703.595646 304.861714 
L 704.319514 332.473143 
L 705.043381 318.667429 
L 705.767248 291.056 
L 707.214983 318.667429 
L 707.938851 277.250286 
L 709.386586 304.861714 
L 710.110453 263.444571 
L 711.558188 263.444571 
L 712.282055 304.861714 
L 713.005923 291.056 
L 713.72979 235.833143 
L 714.453658 304.861714 
L 715.177525 291.056 
L 715.901393 318.667429 
L 716.62526 318.667429 
L 717.349127 291.056 
L 718.072995 332.473143 
L 718.796862 318.667429 
L 719.52073 332.473143 
L 720.968465 304.861714 
L 721.692332 318.667429 
L 722.416199 318.667429 
L 723.140067 332.473143 
L 724.587802 332.473143 
L 725.311669 304.861714 
L 726.035537 332.473143 
L 726.759404 318.667429 
L 727.483272 332.473143 
L 731.102609 332.473143 
L 731.826476 318.667429 
L 732.550344 318.667429 
L 733.274211 332.473143 
L 733.998078 318.667429 
L 734.721946 332.473143 
L 735.445813 304.861714 
L 737.617416 304.861714 
L 738.341283 332.473143 
L 739.065151 304.861714 
L 739.789018 332.473143 
L 743.408355 332.473143 
L 744.132223 318.667429 
L 744.85609 318.667429 
L 745.579957 332.473143 
L 746.303825 318.667429 
L 747.027692 332.473143 
L 748.475427 332.473143 
L 749.199295 277.250286 
L 749.923162 318.667429 
L 750.647029 304.861714 
L 751.370897 318.667429 
L 752.818632 318.667429 
L 753.542499 332.473143 
L 755.714102 332.473143 
L 756.437969 318.667429 
L 757.161836 332.473143 
L 757.885704 332.473143 
L 758.609571 318.667429 
L 759.333439 318.667429 
L 760.057306 332.473143 
L 764.400511 332.473143 
L 765.124378 318.667429 
L 765.848246 332.473143 
L 766.572113 332.473143 
L 767.295981 318.667429 
L 768.019848 332.473143 
L 768.743715 318.667429 
L 769.467583 332.473143 
L 770.915318 332.473143 
L 771.639185 318.667429 
L 772.363053 332.473143 
L 773.08692 332.473143 
L 773.810787 318.667429 
L 774.534655 332.473143 
L 775.258522 318.667429 
L 775.98239 332.473143 
L 776.706257 318.667429 
L 777.430125 318.667429 
L 778.153992 332.473143 
L 778.87786 318.667429 
L 780.325594 318.667429 
L 781.049462 332.473143 
L 784.668799 332.473143 
L 785.392666 318.667429 
L 786.116534 332.473143 
L 786.840401 304.861714 
L 787.564269 332.473143 
L 792.631341 332.473143 
L 793.355208 304.861714 
L 794.079076 318.667429 
L 794.802943 318.667429 
L 795.526811 332.473143 
L 796.974545 332.473143 
L 796.974545 332.473143 
" style="fill:none;stroke:#4c72b0;stroke-linecap:round;stroke-width:2.8;"/>
   </g>
   <g id="line2d_24">
    <path clip-path="url(#p6efea3b928)" d="M 147.665455 389.772029 
L 148.389322 391.659277 
L 150.560924 398.285678 
L 151.284792 399.996993 
L 152.008659 401.110104 
L 152.732527 401.501659 
L 153.456394 401.128267 
L 154.180261 400.031308 
L 154.904129 398.332341 
L 157.799599 389.811741 
L 158.523466 388.444537 
L 159.247334 387.759335 
L 159.971201 387.832067 
L 160.695068 388.654673 
L 161.418936 390.135995 
L 162.866671 394.363357 
L 164.314406 398.692218 
L 165.038273 400.289886 
L 165.76214 401.256893 
L 166.486008 401.486078 
L 167.209875 400.952042 
L 167.933743 399.713967 
L 168.65761 397.909052 
L 171.55308 389.469476 
L 172.276947 388.237377 
L 173.000815 387.710237 
L 173.724682 387.946472 
L 174.44855 388.919903 
L 175.172417 390.522658 
L 176.620152 394.855631 
L 178.067887 399.077939 
L 178.791754 400.553836 
L 179.515622 401.369821 
L 180.239489 401.43547 
L 180.963357 400.743506 
L 181.687224 399.370613 
L 182.411092 397.468929 
L 184.582694 390.847485 
L 185.306561 389.153298 
L 186.030429 388.062571 
L 186.754296 387.696174 
L 187.478164 388.09471 
L 188.202031 389.214015 
L 188.925898 390.930051 
L 191.821368 399.440881 
L 192.545236 400.7875 
L 193.269103 401.448314 
L 193.992971 401.350092 
L 194.716838 400.50372 
L 195.440705 399.00299 
L 196.88844 394.757765 
L 198.336175 390.444052 
L 199.060043 388.864815 
L 199.78391 387.921006 
L 200.507777 387.717215 
L 201.231645 388.276026 
L 201.955512 389.535513 
L 202.67938 391.356103 
L 205.574849 399.779197 
L 206.298717 400.98969 
L 207.022584 401.491971 
L 207.746452 401.230379 
L 208.470319 400.233903 
L 209.194187 398.612969 
L 210.641922 394.26553 
L 212.089656 390.06175 
L 212.813524 388.605494 
L 213.537391 387.813404 
L 214.261259 387.773256 
L 214.985126 388.489499 
L 215.708994 389.882762 
L 217.156728 394.024844 
L 218.604463 398.414317 
L 219.328331 400.091168 
L 220.052198 401.159378 
L 220.776066 401.500572 
L 221.499933 401.07694 
L 222.223801 399.935428 
L 222.947668 398.202533 
L 225.843138 389.702522 
L 226.567005 388.376654 
L 227.290873 387.74031 
L 228.01474 387.864009 
L 228.738607 388.734043 
L 229.462475 390.253996 
L 230.91021 394.516561 
L 232.357945 398.814594 
L 233.081812 400.375206 
L 233.80568 401.2957 
L 234.529547 401.474072 
L 235.253414 400.890555 
L 235.977282 399.609811 
L 236.701149 397.77377 
L 239.596619 389.368196 
L 240.320486 388.179458 
L 241.044354 387.702098 
L 241.768221 387.989015 
L 242.492089 389.008413 
L 243.215956 390.647327 
L 244.663691 395.008697 
L 246.111426 399.193431 
L 246.835293 400.629866 
L 247.559161 401.397964 
L 248.283028 401.412607 
L 249.006896 400.672171 
L 249.730763 399.258711 
L 251.178498 395.096479 
L 252.626233 390.719778 
L 253.3501 389.060471 
L 254.073968 388.01491 
L 254.797835 387.698961 
L 255.521703 388.147637 
L 256.24557 389.311216 
L 256.969438 391.060755 
L 259.864907 399.548901 
L 260.588775 400.853854 
L 261.312642 401.465649 
L 262.03651 401.316488 
L 262.760377 400.4229 
L 263.484244 398.883911 
L 264.931979 394.604532 
L 266.379714 390.322707 
L 267.103582 388.780914 
L 267.827449 387.883847 
L 268.551317 387.730916 
L 269.275184 388.339068 
L 269.999051 389.64091 
L 270.722919 391.492176 
L 272.894521 398.12721 
L 273.618389 399.879196 
L 274.342256 401.046031 
L 275.066123 401.498411 
L 275.789991 401.186205 
L 276.513858 400.14401 
L 277.237726 398.487318 
L 278.685461 394.112556 
L 280.133196 389.947383 
L 280.857063 388.530945 
L 281.58093 387.786934 
L 282.304798 387.797799 
L 283.028665 388.562335 
L 283.752533 389.99582 
L 285.200268 394.177689 
L 286.648002 398.541076 
L 287.37187 400.182636 
L 288.095737 401.205419 
L 288.819605 401.496084 
L 289.543472 401.02242 
L 290.26734 399.836917 
L 290.991207 398.07095 
L 293.886677 389.595715 
L 294.610544 388.311837 
L 295.334412 387.724666 
L 296.058279 387.899271 
L 296.782147 388.816303 
L 297.506014 390.374139 
L 298.953749 394.669805 
L 300.401484 398.934893 
L 301.125351 400.457678 
L 301.849219 401.331207 
L 302.573086 401.458678 
L 303.296953 400.825966 
L 304.020821 399.503186 
L 304.744688 397.636923 
L 306.916291 391.004866 
L 307.640158 389.269493 
L 308.364026 388.124703 
L 309.087893 387.697358 
L 309.81176 388.034816 
L 310.535628 389.099679 
L 311.259495 390.773944 
L 314.154965 399.306659 
L 314.878832 400.702924 
L 315.6027 401.422756 
L 316.326567 401.386386 
L 317.050435 400.597843 
L 317.774302 399.144512 
L 319.222037 394.94352 
L 320.669772 390.593983 
L 321.393639 388.970374 
L 322.117507 387.970495 
L 322.841374 387.70515 
L 323.565242 388.203743 
L 324.289109 389.411023 
L 325.012977 391.193202 
L 327.908446 399.654481 
L 328.632314 400.917126 
L 329.356181 401.479601 
L 330.080049 401.279573 
L 330.803916 400.33921 
L 331.527784 398.762719 
L 332.975518 394.451296 
L 334.423253 390.203469 
L 335.147121 388.69988 
L 335.870988 387.849997 
L 336.594856 387.748001 
L 337.318723 388.405195 
L 338.04259 389.748751 
L 338.766458 391.62978 
L 340.93806 398.258045 
L 341.661928 399.976591 
L 342.385795 401.099194 
L 343.109663 401.501451 
L 343.83353 401.138784 
L 344.557397 400.051383 
L 345.281265 398.359751 
L 348.176735 389.835309 
L 348.900602 388.459387 
L 349.624469 387.763822 
L 350.348337 387.825694 
L 351.072204 388.638147 
L 351.796072 390.111146 
L 353.243807 394.330742 
L 354.691542 398.665892 
L 355.415409 400.271352 
L 356.139276 401.248204 
L 356.863144 401.488196 
L 357.587011 400.964734 
L 358.310879 399.735826 
L 359.034746 397.937655 
L 361.930216 389.491375 
L 362.654083 388.250119 
L 363.377951 387.712409 
L 364.101818 387.937835 
L 364.825686 388.901413 
L 365.549553 390.496364 
L 366.997288 394.823014 
L 368.445023 399.053056 
L 369.16889 400.537263 
L 369.892758 401.363396 
L 370.616625 401.439904 
L 371.340493 400.758309 
L 372.06436 399.394143 
L 372.788227 397.498579 
L 374.95983 390.874924 
L 375.683697 389.173416 
L 376.407565 388.073138 
L 377.131432 387.696019 
L 377.855299 388.083851 
L 378.579167 389.193655 
L 379.303034 390.902446 
L 382.198504 399.417566 
L 382.922372 400.772973 
L 383.646239 401.444185 
L 384.370106 401.35682 
L 385.093974 400.520558 
L 385.817841 399.028072 
L 387.265576 394.790392 
L 388.713311 390.470162 
L 389.437178 388.88305 
L 390.161046 387.929346 
L 390.884913 387.714735 
L 391.608781 388.263002 
L 392.332648 389.513387 
L 393.056516 391.327328 
L 395.951985 399.757569 
L 396.675853 400.977283 
L 397.39972 401.490161 
L 398.123588 401.239366 
L 398.847455 400.252691 
L 399.571323 398.639476 
L 401.019057 394.298132 
L 402.466792 390.086397 
L 403.19066 388.621753 
L 403.914527 387.819473 
L 404.638395 387.768463 
L 405.362262 388.474375 
L 406.08613 389.858982 
L 406.809997 391.768848 
L 408.981599 398.387076 
L 409.705467 400.071337 
L 410.429334 401.149154 
L 411.153202 401.501089 
L 411.877069 401.08814 
L 412.600936 399.956069 
L 413.324804 398.23033 
L 416.220274 389.725582 
L 416.944141 388.390855 
L 417.668009 387.744079 
L 418.391876 387.856928 
L 419.115743 388.716896 
L 419.839611 390.228684 
L 421.287346 394.483927 
L 422.735081 398.788704 
L 423.458948 400.357272 
L 424.182815 401.287711 
L 424.906683 401.476913 
L 425.63055 400.903911 
L 426.354418 399.632202 
L 427.078285 397.802715 
L 429.973755 389.389551 
L 430.697622 388.191529 
L 431.42149 387.703547 
L 432.145357 387.979681 
L 432.869225 388.989331 
L 433.593092 390.620611 
L 435.040827 394.976113 
L 436.488562 399.169022 
L 437.212429 400.613922 
L 437.936297 401.392251 
L 438.660164 401.417758 
L 439.384032 400.687616 
L 440.107899 399.282737 
L 441.555634 395.129025 
L 443.003369 390.746818 
L 443.727236 389.080014 
L 444.451104 388.024789 
L 445.174971 387.698083 
L 445.898839 388.136098 
L 446.622706 389.290295 
L 447.346573 391.03277 
L 450.242043 399.526098 
L 450.965911 400.83998 
L 451.689778 401.462241 
L 452.413645 401.323923 
L 453.137513 400.440355 
L 453.86138 398.90945 
L 455.309115 394.637169 
L 456.75685 390.348375 
L 457.480718 388.798544 
L 458.204585 387.891484 
L 458.928452 387.727714 
L 459.65232 388.325382 
L 460.376187 389.618257 
L 461.100055 391.463066 
L 463.271657 398.099119 
L 463.995524 399.858115 
L 464.719392 401.034297 
L 465.443259 401.497325 
L 466.167127 401.195886 
L 466.890994 400.163385 
L 467.614862 398.514241 
L 469.062597 394.145117 
L 470.510331 389.97155 
L 471.234199 388.546573 
L 471.958066 387.792291 
L 472.681934 387.792291 
L 473.405801 388.546573 
L 474.129669 389.97155 
L 475.577403 394.145117 
L 477.025138 398.514241 
L 477.749006 400.163385 
L 478.472873 401.195886 
L 479.196741 401.497325 
L 479.920608 401.034297 
L 480.644476 399.858115 
L 481.368343 398.099119 
L 484.263813 389.618257 
L 484.98768 388.325382 
L 485.711548 387.727714 
L 486.435415 387.891484 
L 487.159282 388.798544 
L 487.88315 390.348375 
L 489.330885 394.637169 
L 490.77862 398.90945 
L 491.502487 400.440355 
L 492.226355 401.323923 
L 492.950222 401.462241 
L 493.674089 400.83998 
L 494.397957 399.526098 
L 495.121824 397.666195 
L 497.293427 391.03277 
L 498.017294 389.290295 
L 498.741161 388.136098 
L 499.465029 387.698083 
L 500.188896 388.024789 
L 500.912764 389.080014 
L 501.636631 390.746818 
L 504.532101 399.282737 
L 505.255968 400.687616 
L 505.979836 401.417758 
L 506.703703 401.392251 
L 507.427571 400.613922 
L 508.151438 399.169022 
L 509.599173 394.976113 
L 511.046908 390.620611 
L 511.770775 388.989331 
L 512.494643 387.979681 
L 513.21851 387.703547 
L 513.942378 388.191529 
L 514.666245 389.389551 
L 515.390112 391.164852 
L 518.285582 399.632202 
L 519.00945 400.903911 
L 519.733317 401.476913 
L 520.457185 401.287711 
L 521.181052 400.357272 
L 521.904919 398.788704 
L 523.352654 394.483927 
L 524.800389 390.228684 
L 525.524257 388.716896 
L 526.248124 387.856928 
L 526.971991 387.744079 
L 527.695859 388.390855 
L 528.419726 389.725582 
L 529.143594 391.60035 
L 531.315196 398.23033 
L 532.039064 399.956069 
L 532.762931 401.08814 
L 533.486798 401.501089 
L 534.210666 401.149154 
L 534.934533 400.071337 
L 535.658401 398.387076 
L 538.55387 389.858982 
L 539.277738 388.474375 
L 540.001605 387.768463 
L 540.725473 387.819473 
L 541.44934 388.621753 
L 542.173208 390.086397 
L 543.620943 394.298132 
L 545.068677 398.639476 
L 545.792545 400.252691 
L 546.516412 401.239366 
L 547.24028 401.490161 
L 547.964147 400.977283 
L 548.688015 399.757569 
L 549.411882 397.966183 
L 552.307352 389.513387 
L 553.031219 388.263002 
L 553.755087 387.714735 
L 554.478954 387.929346 
L 555.202822 388.88305 
L 555.926689 390.470162 
L 557.374424 394.790392 
L 558.822159 399.028072 
L 559.546026 400.520558 
L 560.269894 401.35682 
L 560.993761 401.444185 
L 561.717628 400.772973 
L 562.441496 399.417566 
L 563.165363 397.528164 
L 565.336966 390.902446 
L 566.060833 389.193655 
L 566.784701 388.083851 
L 567.508568 387.696019 
L 568.232435 388.073138 
L 568.956303 389.173416 
L 569.68017 390.874924 
L 572.57564 399.394143 
L 573.299507 400.758309 
L 574.023375 401.439904 
L 574.747242 401.363396 
L 575.47111 400.537263 
L 576.194977 399.053056 
L 577.642712 394.823014 
L 579.090447 390.496364 
L 579.814314 388.901413 
L 580.538182 387.937835 
L 581.262049 387.712409 
L 581.985917 388.250119 
L 582.709784 389.491375 
L 583.433652 391.298626 
L 586.329121 399.735826 
L 587.052989 400.964734 
L 587.776856 401.488196 
L 588.500724 401.248204 
L 589.224591 400.271352 
L 589.948458 398.665892 
L 591.396193 394.330742 
L 592.843928 390.111146 
L 593.567796 388.638147 
L 594.291663 387.825694 
L 595.015531 387.763822 
L 595.739398 388.459387 
L 596.463265 389.835309 
L 597.187133 391.739111 
L 599.358735 398.359751 
L 600.082603 400.051383 
L 600.80647 401.138784 
L 601.530337 401.501451 
L 602.254205 401.099194 
L 602.978072 399.976591 
L 603.70194 398.258045 
L 606.59741 389.748751 
L 607.321277 388.405195 
L 608.045144 387.748001 
L 608.769012 387.849997 
L 609.492879 388.69988 
L 610.216747 390.203469 
L 611.664482 394.451296 
L 613.112216 398.762719 
L 613.836084 400.33921 
L 614.559951 401.279573 
L 615.283819 401.479601 
L 616.007686 400.917126 
L 616.731554 399.654481 
L 617.455421 397.831588 
L 620.350891 389.411023 
L 621.074758 388.203743 
L 621.798626 387.70515 
L 622.522493 387.970495 
L 623.246361 388.970374 
L 623.970228 390.593983 
L 625.417963 394.94352 
L 626.865698 399.144512 
L 627.589565 400.597843 
L 628.313433 401.386386 
L 629.0373 401.422756 
L 629.761168 400.702924 
L 630.485035 399.306659 
L 631.93277 395.16156 
L 633.380505 390.773944 
L 634.104372 389.099679 
L 634.82824 388.034816 
L 635.552107 387.697358 
L 636.275974 388.124703 
L 636.999842 389.269493 
L 637.723709 391.004866 
L 640.619179 399.503186 
L 641.343047 400.825966 
L 642.066914 401.458678 
L 642.790781 401.331207 
L 643.514649 400.457678 
L 644.238516 398.934893 
L 645.686251 394.669805 
L 647.133986 390.374139 
L 647.857853 388.816303 
L 648.581721 387.899271 
L 649.305588 387.724666 
L 650.029456 388.311837 
L 650.753323 389.595715 
L 651.477191 391.434026 
L 654.37266 399.836917 
L 655.096528 401.02242 
L 655.820395 401.496084 
L 656.544263 401.205419 
L 657.26813 400.182636 
L 657.991998 398.541076 
L 659.439732 394.177689 
L 660.887467 389.99582 
L 661.611335 388.562335 
L 662.335202 387.797799 
L 663.05907 387.786934 
L 663.782937 388.530945 
L 664.506804 389.947383 
L 665.954539 394.112556 
L 667.402274 398.487318 
L 668.126142 400.14401 
L 668.850009 401.186205 
L 669.573877 401.498411 
L 670.297744 401.046031 
L 671.021611 399.879196 
L 671.745479 398.12721 
L 674.640949 389.64091 
L 675.364816 388.339068 
L 676.088683 387.730916 
L 676.812551 387.883847 
L 677.536418 388.780914 
L 678.260286 390.322707 
L 679.708021 394.604532 
L 681.155756 398.883911 
L 681.879623 400.4229 
L 682.60349 401.316488 
L 683.327358 401.465649 
L 684.051225 400.853854 
L 684.775093 399.548901 
L 685.49896 397.695399 
L 687.670562 391.060755 
L 688.39443 389.311216 
L 689.118297 388.147637 
L 689.842165 387.698961 
L 690.566032 388.01491 
L 691.2899 389.060471 
L 692.013767 390.719778 
L 693.461502 395.096479 
L 694.909237 399.258711 
L 695.633104 400.672171 
L 696.356972 401.412607 
L 697.080839 401.397964 
L 697.804707 400.629866 
L 698.528574 399.193431 
L 699.976309 395.008697 
L 701.424044 390.647327 
L 702.147911 389.008413 
L 702.871779 387.989015 
L 703.595646 387.702098 
L 704.319514 388.179458 
L 705.043381 389.368196 
L 705.767248 391.136578 
L 708.662718 399.609811 
L 709.386586 400.890555 
L 710.110453 401.474072 
L 710.83432 401.2957 
L 711.558188 400.375206 
L 712.282055 398.814594 
L 713.72979 394.516561 
L 715.177525 390.253996 
L 715.901393 388.734043 
L 716.62526 387.864009 
L 717.349127 387.74031 
L 718.072995 388.376654 
L 718.796862 389.702522 
L 719.52073 391.570986 
L 721.692332 398.202533 
L 722.416199 399.935428 
L 723.140067 401.07694 
L 723.863934 401.500572 
L 724.587802 401.159378 
L 725.311669 400.091168 
L 726.035537 398.414317 
L 728.931006 389.882762 
L 729.654874 388.489499 
L 730.378741 387.773256 
L 731.102609 387.813404 
L 731.826476 388.605494 
L 732.550344 390.06175 
L 733.998078 394.26553 
L 735.445813 398.612969 
L 736.169681 400.233903 
L 736.893548 401.230379 
L 737.617416 401.491971 
L 738.341283 400.98969 
L 739.065151 399.779197 
L 739.789018 397.994636 
L 742.684488 389.535513 
L 743.408355 388.276026 
L 744.132223 387.717215 
L 744.85609 387.921006 
L 745.579957 388.864815 
L 746.303825 390.444052 
L 747.75156 394.757765 
L 749.199295 399.00299 
L 749.923162 400.50372 
L 750.647029 401.350092 
L 751.370897 401.448314 
L 752.094764 400.7875 
L 752.818632 399.440881 
L 753.542499 397.557684 
L 755.714102 390.930051 
L 756.437969 389.214015 
L 757.161836 388.09471 
L 757.885704 387.696174 
L 758.609571 388.062571 
L 759.333439 389.153298 
L 760.057306 390.847485 
L 762.952776 399.370613 
L 763.676643 400.743506 
L 764.400511 401.43547 
L 765.124378 401.369821 
L 765.848246 400.553836 
L 766.572113 399.077939 
L 768.019848 394.855631 
L 769.467583 390.522658 
L 770.19145 388.919903 
L 770.915318 387.946472 
L 771.639185 387.710237 
L 772.363053 388.237377 
L 773.08692 389.469476 
L 773.810787 391.269997 
L 776.706257 399.713967 
L 777.430125 400.952042 
L 778.153992 401.486078 
L 778.87786 401.256893 
L 779.601727 400.289886 
L 780.325594 398.692218 
L 781.773329 394.363357 
L 783.221064 390.135995 
L 783.944932 388.654673 
L 784.668799 387.832067 
L 785.392666 387.759335 
L 786.116534 388.444537 
L 786.840401 389.811741 
L 787.564269 391.709439 
L 789.735871 398.332341 
L 790.459739 400.031308 
L 791.183606 401.128267 
L 791.907473 401.501659 
L 792.631341 401.110104 
L 793.355208 399.996993 
L 794.079076 398.285678 
L 796.974545 389.772029 
L 796.974545 389.772029 
" style="fill:none;stroke:#55a868;stroke-linecap:round;stroke-width:2.8;"/>
   </g>
   <g id="line2d_25">
    <path clip-path="url(#p6efea3b928)" d="M 147.665455 484.197839 
L 161.418936 483.84067 
L 175.172417 483.268801 
L 189.649766 482.445075 
L 204.850982 481.351326 
L 220.776066 479.977285 
L 238.148884 478.246581 
L 257.693305 476.064772 
L 281.58093 473.161278 
L 354.691542 464.108121 
L 373.512095 462.090299 
L 390.884913 460.452435 
L 406.809997 459.177815 
L 422.011213 458.189716 
L 436.488562 457.474441 
L 450.242043 457.010883 
L 463.995524 456.765397 
L 477.749006 456.741941 
L 491.502487 456.940893 
L 505.255968 457.359046 
L 519.733317 458.028551 
L 534.210666 458.921465 
L 549.411882 460.081957 
L 565.336966 461.518023 
L 582.709784 463.305632 
L 602.978072 465.62249 
L 629.0373 468.841452 
L 686.946695 476.064772 
L 707.214983 478.322983 
L 724.587802 480.044414 
L 740.512885 481.40843 
L 755.714102 482.491457 
L 770.19145 483.304117 
L 784.668799 483.888506 
L 796.974545 484.197839 
L 796.974545 484.197839 
" style="fill:none;stroke:#c44e52;stroke-linecap:round;stroke-width:2.8;"/>
   </g>
   <g id="line2d_26">
    <path clip-path="url(#p6efea3b928)" d="M 147.665455 518.850286 
L 718.072995 518.850286 
L 718.796862 532.656 
L 796.974545 532.656 
L 796.974545 532.656 
" style="fill:none;stroke:#8172b2;stroke-linecap:round;stroke-width:2.8;"/>
   </g>
   <g id="line2d_27">
    <path clip-path="url(#p6efea3b928)" d="M 147.665455 532.656 
L 718.072995 532.656 
L 718.796862 518.850286 
L 796.974545 518.850286 
L 796.974545 518.850286 
" style="fill:none;stroke:#ccb974;stroke-linecap:round;stroke-width:2.8;"/>
   </g>
   <g id="patch_3">
    <path d="M 115.2 554.4 
L 115.2 76.032 
" style="fill:none;"/>
   </g>
   <g id="patch_4">
    <path d="M 829.44 554.4 
L 829.44 76.032 
" style="fill:none;"/>
   </g>
   <g id="patch_5">
    <path d="M 115.2 554.4 
L 829.44 554.4 
" style="fill:none;"/>
   </g>
   <g id="patch_6">
    <path d="M 115.2 76.032 
L 829.44 76.032 
" style="fill:none;"/>
   </g>
  </g>
 </g>
 <defs>
  <clipPath id="p6efea3b928">
   <rect height="478.368" width="714.24" x="115.2" y="76.032"/>
  </clipPath>
 </defs>
</svg>
